<?xml version="1.0" standalone="no"?> <!DOCTYPE svg PUBLIC "-//W3C//DTD SVG 1.0//EN" "http://www.w3.org/TR/2001/REC-SVG-20010904/DTD/svg10.dtd" > <svg xmlns="http://www.w3.org/2000/svg" width="100%" height="100%">
<defs >
<font id="museo_slab_2" horiz-adv-x="493" ><font-face
    font-family="Museo Slab 500"
    units-per-em="1000"
    panose-1="2 0 0 0 0 0 0 0 0 0"
    ascent="940"
    descent="-260"
    alphabetic="0" />
<missing-glyph horiz-adv-x="510" d="M5 0V700H505V0H5ZM255 395L425 650H85L255 395ZM285 350L455 95V605L285 350ZM55 95L225 350L55 605V95ZM85 50H425L255 305L85 50Z" />
<glyph unicode=" " glyph-name="space" horiz-adv-x="250" />
<glyph unicode="!" glyph-name="exclam" horiz-adv-x="247" d="M80 194L73 706H173L167 194H80ZM74 0V98H174V0H74Z" />
<glyph unicode="&quot;" glyph-name="quotedbl" horiz-adv-x="344" d="M204 506V718H280V506H204ZM64 506V718H140V506H64Z" />
<glyph unicode="#" glyph-name="numbersign" horiz-adv-x="717" d="M139 0L173 191H42L54 265H185L215 433H85L97 506H227L262 706H343L308 506H463L498 706H580L545 506H675L663 433H532L502 265H632L620 191H490L457 0H375L409 191H254L220 0H139ZM266 265H421L451
433H296L266 265Z" />
<glyph unicode="$" glyph-name="dollar" horiz-adv-x="543" d="M42 96L96 167L118 148Q141 129 186 110T276 91Q329 91 364 119T400 195Q400 233 365 260T278 306T176 348T90 413T54 516Q54 586 105 637T240 700V809H311V701Q361 697 403 680T464 648L482 632L439
555L420 570Q400 586 362 601T284 616Q226 616 190 589T154 518Q154 484 179 458T243 418T327 384T410 345T474 288T500 201Q500 125 449 70T311 5V-102H240V5Q196 9 156 24T92 55T56 84L42 96Z" />
<glyph unicode="%" glyph-name="percent" horiz-adv-x="750" d="M257 422T194 422T87 465T43 570Q43 631 87 674T194 718T301 675T346 570T302 466ZM58 0L598 706H692L152 0H58ZM162 496T194 496T247 517T268 570Q268 601 247 623T194 645T142 623T120 570Q120
538 141 517ZM405 136Q405 197 449 240T557 284Q619 284 663 241T708 136T664 32T557 -12Q493 -12 449 31T405 136ZM483 136Q483 104 504 83T557 62T609 83T631 136T610 189T557 211T505 189T483 136Z" />
<glyph unicode="&amp;" glyph-name="ampersand" horiz-adv-x="675" d="M49 197Q49 259 83 309T177 379V381L162 388Q146 396 128 411T95 460T79 536Q79 621 142 669T305 718Q331 718 362 712L393 707L368 628L349 631Q330 634 315 634Q256 634 218 605T180 526Q180
506 185 489T204 453T244 424T311 413H461V511H558V413H651V331H558V235Q558 118 490 53T305 -12Q191 -12 120 47T49 197ZM150 205Q150 149 192 113T305 77Q378 77 419 117T461 239V331H306Q231 331 191 298T150 205Z" />
<glyph unicode="&apos;" glyph-name="quotesingle" horiz-adv-x="205" d="M64 506V718H141V506H64Z" />
<glyph unicode="(" glyph-name="parenleft" horiz-adv-x="314" d="M185 -95Q69 98 69 340Q69 550 185 735H270Q157 546 157 339Q157 107 270 -95H185Z" />
<glyph unicode=")" glyph-name="parenright" horiz-adv-x="314" d="M44 -95Q157 110 157 339Q157 546 44 735H129Q245 550 245 340Q245 98 129 -95H44Z" />
<glyph unicode="*" glyph-name="asterisk" horiz-adv-x="479" d="M161 329L89 381L178 491V493L41 530L68 614L201 564L193 706H284L276 564L410 614L438 530L300 493V491L389 381L317 329L240 447H238L161 329Z" />
<glyph unicode="+" glyph-name="plus" horiz-adv-x="613" d="M42 246V324H266V570H348V324H571V246H348V0H266V246H42Z" />
<glyph unicode="," glyph-name="comma" horiz-adv-x="261" d="M20 -124L90 105H192L97 -124H20Z" />
<glyph unicode="-" glyph-name="hyphen" horiz-adv-x="476" d="M92 242V328H384V242H92Z" />
<glyph unicode="." glyph-name="period" horiz-adv-x="256" d="M76 0V105H180V0H76Z" />
<glyph unicode="/" glyph-name="slash" horiz-adv-x="424" d="M41 -42L296 744H382L127 -42H41Z" />
<glyph unicode="0" glyph-name="zero" horiz-adv-x="620" d="M310 -12Q60 -12 60 354Q60 718 310 718Q378 718 428 690T506 612T547 498T560 354T547 210T506 95T428 16T310 -12ZM162 77T310 77T458 354Q458 630 310 630T162 354Q162 77 310 77Z" />
<glyph unicode="1" glyph-name="one" horiz-adv-x="479" d="M51 0V82H207V542L208 585H206L197 573Q188 561 172 545L106 480L46 542L215 706H303V82H457V0H51Z" />
<glyph unicode="2" glyph-name="two" horiz-adv-x="586" d="M54 0Q49 32 49 54Q49 105 68 149T119 224T187 284T261 338T330 388T380 444T400 511Q400 565 365 597T273 630Q232 630 196 607T143 560L127 536L57 584L70 605Q84 626 108 651T179 697T281 718Q379
718 441 662T504 515Q504 469 485 429T436 360T368 303T294 252T227 203T177 147T157 82H445V176H532V0H54Z" />
<glyph unicode="3" glyph-name="three" horiz-adv-x="570" d="M69 534V706H500V637L313 417Q391 409 452 359T513 215Q513 121 446 55T271 -12Q221 -12 175 3T101 36T58 69L42 84L94 155L114 136Q135 116 178 97T266 77Q326 77 368 115T411 211Q411 272 367 307T255
342Q223 342 213 340L190 392L362 599Q369 608 379 616L389 625V627Q389 624 353 624H156V534H69Z" />
<glyph unicode="4" glyph-name="four" horiz-adv-x="599" d="M26 189V251L353 706H465V269H561V189H465V0H368V189H26ZM344 553L134 271V269H368V546L373 600H370L344 553Z" />
<glyph unicode="5" glyph-name="five" horiz-adv-x="564" d="M42 79L94 149L112 131Q129 113 169 95T255 77Q322 77 368 119T414 221Q414 287 370 327T254 367Q221 367 190 358T144 340L130 331L72 352L107 706H472V534H385V624H193L175 455L170 427H172L184 432Q195
438 220 443T272 449Q380 449 448 385T516 225Q516 125 443 57T260 -12Q211 -12 167 2T97 33T56 65L42 79Z" />
<glyph unicode="6" glyph-name="six" horiz-adv-x="597" d="M320 -12Q204 -12 130 79T56 318Q56 391 75 460T132 587T233 682T377 718Q413 718 446 711T496 696L512 689L481 606L448 618Q415 630 379 630Q288 630 234 560T166 390H168Q191 420 235 438T328 457Q426
457 489 391T552 226Q552 122 486 55T320 -12ZM160 266Q160 199 206 138T319 77Q380 77 415 118T451 226T411 333T300 374Q242 374 201 342T160 266Z" />
<glyph unicode="7" glyph-name="seven" horiz-adv-x="543" d="M103 0L395 590Q402 604 410 614L417 625V627Q417 624 376 624H127V534H40V706H524V638L205 0H103Z" />
<glyph unicode="8" glyph-name="eight" horiz-adv-x="600" d="M54 199Q54 311 168 391Q82 448 82 533Q82 609 139 663T302 718Q402 718 464 667T526 532Q526 488 506 443T471 380T442 347Q543 288 543 194Q543 110 476 49T301 -12Q195 -12 125 48T54 199ZM180
532Q180 495 208 467T277 422T368 383Q429 455 429 521Q429 573 395 602T302 632Q245 632 213 604T180 532ZM154 209Q154 150 197 113T300 75Q357 75 399 109T442 194Q442 232 414 259T340 305T238 349Q154 286 154 209Z" />
<glyph unicode="9" glyph-name="nine" horiz-adv-x="597" d="M45 481Q45 585 111 651T278 718Q394 718 467 627T541 388Q541 316 522 247T465 119T364 24T220 -12Q184 -12 150 -5T100 10L84 17L115 101L148 89Q182 77 218 77Q310 77 364 147T432 317H430Q407 288
363 271T269 253Q171 253 108 318T45 481ZM147 481Q147 417 186 377T295 336Q353 336 395 368T437 443Q437 510 390 570T278 630Q218 630 183 588T147 481Z" />
<glyph unicode=":" glyph-name="colon" horiz-adv-x="298" d="M97 0V105H201V0H97ZM97 401V506H201V401H97Z" />
<glyph unicode=";" glyph-name="semicolon" horiz-adv-x="299" d="M102 401V506H204V401H102ZM43 -124L104 105H206L121 -124H43Z" />
<glyph unicode="&lt;" glyph-name="less" horiz-adv-x="613" d="M58 252V318L524 526V437L167 286V284L524 133V44L58 252Z" />
<glyph unicode="=" glyph-name="equal" horiz-adv-x="613" d="M68 340V418H545V340H68ZM68 151V229H545V151H68Z" />
<glyph unicode="&gt;" glyph-name="greater" horiz-adv-x="613" d="M88 44V133L446 284V286L88 437V526L555 318V252L88 44Z" />
<glyph unicode="?" glyph-name="question" horiz-adv-x="469" d="M148 194V241Q148 283 165 317T208 376T258 422T300 471T318 530Q318 572 286 600T204 629Q176 629 148 619T104 598L90 587L36 656L56 672Q75 688 119 704T211 720Q298 720 359 669T420 537Q420
491 402 455T358 394T306 347T261 296T243 235V194H148ZM145 0V98H246V0H145Z" />
<glyph unicode="@" glyph-name="at" horiz-adv-x="787" d="M43 86T43 242T149 504T421 611Q543 611 605 553T668 408V125H740V52H467Q376 52 318 107T260 241Q260 318 317 373T467 428H575Q574 471 531 501T418 531Q299 531 220 446T140 240T220 37T424 -46V-125Q258
-125 151 -20ZM358 241Q358 193 391 159T475 125H575V361H477Q425 361 392 326T358 241Z" />
<glyph unicode="A" glyph-name="A" horiz-adv-x="721" d="M11 0V78H79L304 706H417L642 78H710V0H465V78H540L485 235H235L180 78H256V0H11ZM260 315H460L374 560Q368 578 365 596L362 614H359L347 560L260 315Z" />
<glyph unicode="B" glyph-name="B" horiz-adv-x="680" d="M53 0V78H141V629H53V706H374Q452 706 498 685Q541 666 568 624T595 526Q595 475 572 435T506 374V372Q562 356 592 310T623 201Q623 133 587 83T493 13Q453 0 387 0H53ZM241 409H389Q437 409 465 439T493
517Q493 584 447 610Q419 624 374 624H241V409ZM241 82H391Q430 82 454 92Q485 105 503 135T521 206Q521 261 488 294T399 327H241V82Z" />
<glyph unicode="C" glyph-name="C" horiz-adv-x="744" d="M49 357Q49 512 152 615T410 718Q446 718 488 711T575 690T649 646T679 578V492H586V547Q586 576 556 596T488 624T414 632Q300 632 226 556T152 361Q152 236 228 156T420 75Q452 75 489 81T561 108T596
158V213H689V127Q689 90 661 62T588 18T499 -4T414 -12Q256 -12 153 94T49 357Z" />
<glyph unicode="D" glyph-name="D" horiz-adv-x="779" d="M53 0V78H141V629H53V706H354Q447 706 504 689Q607 657 667 569T727 353T668 139T504 19Q446 0 355 0H53ZM241 82H349Q423 82 469 100Q541 125 582 191T623 353T583 515T470 608Q425 624 349 624H241V82Z" />
<glyph unicode="E" glyph-name="E" horiz-adv-x="632" d="M53 0V78H141V629H53V706H564V542H477V624H241V397H491V315H241V82H494V167H581V0H53Z" />
<glyph unicode="F" glyph-name="F" horiz-adv-x="577" d="M53 0V78H141V629H53V706H542V539H455V620H241V386H485V304H241V78H337V0H53Z" />
<glyph unicode="G" glyph-name="G" horiz-adv-x="766" d="M49 197T49 355T152 615T419 718Q483 718 544 703T647 654T690 579V492H598V544Q598 585 545 608T422 632Q299 632 226 557T153 358Q153 234 227 155T425 75Q463 75 503 82T578 110T614 163V256H476V334H706V136Q706
97 677 67T601 21T508 -4T418 -12Q256 -12 153 92Z" />
<glyph unicode="H" glyph-name="H" horiz-adv-x="848" d="M53 0V78H141V629H53V706H330V629H241V394H607V629H518V706H795V629H707V78H795V0H518V78H607V312H241V78H330V0H53Z" />
<glyph unicode="I" glyph-name="I" horiz-adv-x="382" d="M53 0V78H141V629H53V706H330V629H241V78H330V0H53Z" />
<glyph unicode="J" glyph-name="J" horiz-adv-x="555" d="M24 197V238H121V207Q121 151 148 114T230 77Q277 77 307 108T337 207V629H235V706H516V629H437V201Q437 95 376 42T229 -12T84 40T24 197Z" />
<glyph unicode="K" glyph-name="K" horiz-adv-x="692" d="M53 0V78H141V629H53V706H318V629H241V407H332L486 629H421V706H660V629H592L409 374V372L414 368Q420 365 430 354T449 325L576 104Q591 78 626 78H659V0H588Q546 0 527 11T490 53L354 297Q337 325 299
325H241V78H328V0H53Z" />
<glyph unicode="L" glyph-name="L" horiz-adv-x="604" d="M54 0V78H142V624H54V706H331V624H242V82H488V196H576V0H54Z" />
<glyph unicode="M" glyph-name="M" horiz-adv-x="958" d="M38 0V78H126L171 629H81V706H281L462 276L478 225H480L496 276L677 706H877V629H787L832 78H920V0H648V78H733L701 500L704 558H701L685 504L523 133H435L273 504L257 558H254L257 500L225 78H310V0H38Z" />
<glyph unicode="N" glyph-name="N" horiz-adv-x="838" d="M53 0V78H141V629H53V706H240L587 200L611 149H614L612 170Q609 192 609 206V629H519V706H798V629H709V0H611L264 506Q256 519 248 538L240 557H237L241 500V78H332V0H53Z" />
<glyph unicode="O" glyph-name="O" horiz-adv-x="822" d="M48 358Q48 510 152 614T411 718Q564 718 669 614T774 358Q774 202 669 95T411 -12Q257 -12 153 95T48 358ZM151 358Q151 239 226 158T411 77Q519 77 594 158T670 358Q670 473 595 551T411 630Q302 630
227 552T151 358Z" />
<glyph unicode="P" glyph-name="P" horiz-adv-x="653" d="M53 0V78H141V629H53V706H382Q461 706 503 687Q558 664 590 611T623 487Q623 413 587 357T490 280Q449 265 384 265H241V78H330V0H53ZM241 347H372Q417 347 451 361Q522 393 522 487Q522 574 459 607Q428
624 373 624H241V347Z" />
<glyph unicode="Q" glyph-name="Q" horiz-adv-x="825" d="M49 357Q49 510 153 614T412 718T671 617T776 362Q776 225 691 124L775 44L718 -18L635 65Q541 -12 411 -12Q258 -12 154 95T49 357ZM152 357Q152 239 227 158T412 77Q504 77 566 130L462 233L519 294L622
190Q675 266 675 358Q675 473 599 551T412 630Q302 630 227 552T152 357Z" />
<glyph unicode="R" glyph-name="R" horiz-adv-x="702" d="M53 0V78H141V629H53V706H359Q444 706 489 691Q546 672 579 625T612 508Q612 432 573 380T466 310V308L478 298Q489 289 496 275L596 101Q609 78 645 78H666V0H606Q562 0 545 10T508 53L399 246Q385 269
371 277T325 285H241V78H328V0H53ZM241 367H383Q441 367 476 402T511 500Q511 584 445 611Q412 624 358 624H241V367Z" />
<glyph unicode="S" glyph-name="S" horiz-adv-x="578" d="M53 212H145V160Q145 122 186 100T286 77Q349 77 387 105T426 185Q426 205 420 222T402 251T374 274T339 294T299 311T256 328Q212 345 186 357T129 393T83 449T68 528Q68 622 132 670T294 718Q380 718
444 687T508 601V518H415V567Q415 596 378 613T294 630Q240 630 205 605T170 533Q170 511 179 493T198 464T234 440T272 422T320 403Q361 388 383 379T437 350T485 312T514 262T527 193Q527 96 458 42T286 -12Q195 -12 124 27T53 138V212Z" />
<glyph unicode="T" glyph-name="T" horiz-adv-x="664" d="M193 0V78H282V624H116V514H29V706H635V514H548V624H382V78H471V0H193Z" />
<glyph unicode="U" glyph-name="U" horiz-adv-x="797" d="M120 263V629H31V706H309V629H220V264Q220 192 247 149Q292 77 399 77T551 151Q578 197 578 265V629H489V706H766V629H678V263Q678 161 629 91Q594 41 533 15T399 -12Q324 -12 264 15T167 91Q120 155 120 263Z" />
<glyph unicode="V" glyph-name="V" horiz-adv-x="714" d="M304 0L81 629H12V706H264V629H186L344 164L356 109H359L371 164L529 629H451V706H703V629H633L410 0H304Z" />
<glyph unicode="W" glyph-name="W" horiz-adv-x="1009" d="M16 629V706H267V629H183L293 166L301 113H304L314 166L462 706H547L694 166L704 113H708L715 166L825 629H741V706H993V629H925L767 0H653L515 501L506 557H502L493 501L355 0H241L84 629H16Z" />
<glyph unicode="X" glyph-name="X" horiz-adv-x="669" d="M30 0V78H96L278 357L99 629H34V706H280V629H205L322 444L340 416H342L359 444L472 629H399V706H638V629H572L389 348L569 78H636V0H390V78H464L346 262L328 291H326L321 281Q316 271 310 262L196 78H270V0H30Z" />
<glyph unicode="Y" glyph-name="Y" horiz-adv-x="650" d="M186 0V78H275V299L77 629H10V706H253V629H179L310 407L324 377H326L341 407L472 629H399V706H640V629H573L375 299V78H464V0H186Z" />
<glyph unicode="Z" glyph-name="Z" horiz-adv-x="632" d="M54 0V66L418 591L447 625V627Q447 624 407 624H146V514H59V706H568V641L204 115L175 81V79Q175 82 215 82H491V196H578V0H54Z" />
<glyph unicode="[" glyph-name="bracketleft" horiz-adv-x="311" d="M97 -95V735H262V662H182V-21H262V-95H97Z" />
<glyph unicode="\" glyph-name="backslash" horiz-adv-x="423" d="M297 -42L42 744H128L382 -42H297Z" />
<glyph unicode="]" glyph-name="bracketright" horiz-adv-x="312" d="M49 -21H130V662H49V735H215V-95H49V-21Z" />
<glyph unicode="^" glyph-name="asciicircum" horiz-adv-x="613" d="M69 247L269 706H332L532 247H444L300 599L157 247H69Z" />
<glyph unicode="_" glyph-name="underscore" horiz-adv-x="557" d="M10 0H547V-78H10V0Z" />
<glyph unicode="`" glyph-name="grave" horiz-adv-x="499" d="M263 755L139 882H251L354 755H263Z" />
<glyph unicode="a" glyph-name="a" horiz-adv-x="555" d="M33 141Q33 179 48 208T91 256T148 285T215 302T276 309T328 311H360V330Q360 438 252 438Q216 438 180 426T126 402L107 389L68 458L90 473Q112 488 160 503T260 518Q357 518 407 469T457 323V97Q457
75 479 75H530V0H429Q366 0 366 55V62L370 95H368L358 78Q349 62 331 42T278 5T201 -12Q132 -12 83 28T33 141ZM131 149Q131 113 155 88T222 63Q283 63 322 114T361 227V248H336Q131 248 131 149Z" />
<glyph unicode="b" glyph-name="b" horiz-adv-x="609" d="M85 0V631H0V706H182V472L179 430H181L190 444Q200 458 217 474T269 504T344 518Q446 518 506 445T567 253T503 61T336 -12Q296 -12 263 2T212 34T185 66L176 80H174Q177 80 177 40V0H85ZM179 251Q179
178 216 125T323 72Q385 72 426 120T468 252Q468 334 429 383T325 433Q263 433 221 388T179 251Z" />
<glyph unicode="c" glyph-name="c" horiz-adv-x="553" d="M40 252Q40 367 117 442T308 518Q339 518 371 512T434 494T486 458T506 403V341H420V376Q420 403 385 418T311 434Q234 434 187 385T139 254Q139 170 190 121T317 72Q356 72 395 88T446 112T479 137L516
66Q431 -12 313 -12Q199 -12 120 60T40 252Z" />
<glyph unicode="d" glyph-name="d" horiz-adv-x="629" d="M42 253Q42 373 105 445T272 518Q312 518 344 505T393 476T419 446L428 433H430Q427 433 427 471V631H343V706H524V97Q524 75 546 75H597V0H496Q433 0 433 55V62L436 89H434L425 73Q416 57 398 39T344
4T263 -12Q162 -12 102 61T42 253ZM141 253Q141 171 180 122T284 72Q345 72 387 117T430 252Q430 327 393 380T287 433Q224 433 183 385T141 253Z" />
<glyph unicode="e" glyph-name="e" horiz-adv-x="555" d="M41 253Q41 372 112 445T294 518Q398 518 455 451T513 281L510 244H140Q144 163 194 118T315 72Q354 72 392 86T448 114L466 129L506 58L484 40Q461 23 412 6T309 -12Q191 -12 116 63T41 253ZM144 306H413Q411
370 377 405T292 441Q236 441 195 405T144 306Z" />
<glyph unicode="f" glyph-name="f" horiz-adv-x="375" d="M48 0V75H127V431H43V506H127V531Q127 588 146 627T196 683T254 706T309 713L355 710V630Q355 633 319 633Q224 633 224 533V506H346V431H224V75H317V0H48Z" />
<glyph unicode="g" glyph-name="g" horiz-adv-x="626" d="M121 -94L139 -102Q157 -111 191 -119T260 -128Q331 -128 375 -93T420 16V56L423 88H421Q372 6 269 6T105 79T43 265T102 447T265 518Q318 518 363 497T429 435H431Q429 435 429 455Q429 506 487 506H595V431H539Q517
431 517 411V21Q517 -39 496 -85T437 -157T356 -197T262 -210Q173 -210 89 -168L121 -94ZM288 90Q347 90 384 131T422 264Q422 434 279 434Q214 434 178 390T142 267Q142 187 181 139T288 90Z" />
<glyph unicode="h" glyph-name="h" horiz-adv-x="674" d="M32 0V75H112V631H27V706H208V444L205 402H207Q227 446 277 482T396 518Q570 518 570 324V75H649V0H473V302Q473 363 453 396T377 429Q303 429 256 374T208 237V75H288V0H32Z" />
<glyph unicode="i" glyph-name="i" horiz-adv-x="336" d="M125 607V706H227V607H125ZM48 0V75H127V431H43V506H224V75H304V0H48Z" />
<glyph unicode="j" glyph-name="j" horiz-adv-x="296" d="M112 607V706H214V607H112ZM-16 -125Q-16 -126 6 -126Q19 -126 31 -124T59 -115T86 -96T106 -63T114 -12V431H29V506H211V-15Q211 -63 197 -99T161 -155T112 -187T62 -202T17 -206L-16 -204V-125Z" />
<glyph unicode="k" glyph-name="k" horiz-adv-x="587" d="M32 0V75H112V631H27V706H208V312H282L383 431H317V506H547V431H480L355 285V283Q356 283 360 281T374 268T392 242L478 95Q490 75 522 75H554V0H478Q443 0 427 9T395 47L295 218Q283 238 248 238H208V75H276V0H32Z"
/>
<glyph unicode="l" glyph-name="l" horiz-adv-x="293" d="M85 144V631H1V706H182V150Q182 114 193 96T236 78L263 79L262 -1Q262 -3 219 -3Q85 -3 85 144Z" />
<glyph unicode="m" glyph-name="m" horiz-adv-x="1000" d="M48 0V75H127V410Q127 431 105 431H43V506H157Q221 506 221 450V424L218 395H220Q240 443 291 480T400 518Q523 518 548 399H550Q572 449 621 483T731 518Q896 518 896 324V75H976V0H799V303Q799 364
781 397T710 430Q642 430 602 372T561 233V75H640V0H464V303Q464 363 447 396T376 430Q308 430 266 369T224 229V75H304V0H48Z" />
<glyph unicode="n" glyph-name="n" horiz-adv-x="689" d="M48 0V75H127V409Q127 431 105 431H43V506H157Q221 506 221 450V424L218 395H220Q225 408 238 426T273 466T334 503T417 518Q503 518 544 470T585 324V75H665V0H488V302Q488 363 469 396T393 429Q319 429
272 372T224 235V75H304V0H48Z" />
<glyph unicode="o" glyph-name="o" horiz-adv-x="626" d="M40 140T40 254T119 443T313 518T507 443T586 254T507 64T313 -12T120 64ZM139 254Q139 175 189 124T313 72Q385 72 436 124T487 254T436 383T313 434Q240 434 190 383T139 254Z" />
<glyph unicode="p" glyph-name="p" horiz-adv-x="637" d="M34 -125H113V409Q113 431 91 431H29V506H141Q203 506 203 456V452L201 423H203L212 438Q221 453 239 470T293 503T373 518Q474 518 534 445T595 253T531 61T366 -12Q328 -12 296 1T246 31T218 60L209
74H207Q210 74 210 30V-125H290V-200H34V-125ZM208 251Q208 178 246 125T351 72Q413 72 455 120T497 252Q497 334 457 383T353 433Q291 433 250 388T208 251Z" />
<glyph unicode="q" glyph-name="q" horiz-adv-x="609" d="M42 253Q42 373 106 445T271 518Q364 518 432 430H434Q432 430 432 465V506H524V-125H603V-200H348V-125H427V34L430 78H428L418 64Q409 50 392 33T340 2T265 -12Q163 -12 103 61T42 253ZM141 253Q141
171 180 122T284 72Q346 72 388 117T430 254Q430 327 393 380T286 434Q224 434 183 385T141 253Z" />
<glyph unicode="r" glyph-name="r" horiz-adv-x="423" d="M50 0V75H126V409Q126 431 104 431H41V506H155Q220 506 220 447V415L218 380H220Q238 438 280 475T380 512L405 510V414Q405 417 377 417Q302 417 263 355T223 209V75H298V0H50Z" />
<glyph unicode="s" glyph-name="s" horiz-adv-x="481" d="M40 109V163H125V130Q125 100 160 84T241 67Q285 67 314 84T343 132Q343 147 337 159T319 179T292 195T257 209T217 224Q181 237 160 247T112 276T72 319T59 378Q59 447 115 482T246 518Q310 518 365 492T421
416V355H336V388Q336 411 310 425T247 440Q209 440 183 424T157 379Q157 362 165 349T193 324T229 307T274 290Q311 278 334 268T385 240T427 196T441 137Q441 67 384 28T238 -12Q162 -12 101 20T40 109Z" />
<glyph unicode="t" glyph-name="t" horiz-adv-x="360" d="M103 185V431H18V506H105V645H200V506H321V431H200V194Q200 158 211 133T240 97T274 82T308 78L331 79V-2Q331 -4 296 -4Q273 -4 251 -1T201 14T153 45T118 101T103 185Z" />
<glyph unicode="u" glyph-name="u" horiz-adv-x="665" d="M105 182V431H20V506H202V202Q202 141 221 109T297 76Q370 76 415 135T461 273V431H376V506H558V96Q558 74 580 74H633V0H528Q464 0 464 56V78L466 108H464Q459 95 447 78T412 39T352 3T271 -12Q105 -12 105 182Z" />
<glyph unicode="v" glyph-name="v" horiz-adv-x="581" d="M9 431V506H236V431H171L278 136L289 89H292L303 136L411 431H346V506H572V431H509L345 0H236L73 431H9Z" />
<glyph unicode="w" glyph-name="w" horiz-adv-x="856" d="M10 431V506H236V431H168L254 137L262 90H265L273 137L384 505H472L583 137L591 90H594L602 137L689 431H620V506H846V431H783L653 0H545L438 338L429 386H427L418 338L311 0H203L73 431H10Z" />
<glyph unicode="x" glyph-name="x" horiz-adv-x="572" d="M37 0V75H113L234 261L122 431H40V506H182L272 359L289 326H291L309 359L401 506H535V431H458L345 262L470 75H538V0H409L307 164L289 196H287L269 163L169 0H37Z" />
<glyph unicode="y" glyph-name="y" horiz-adv-x="590" d="M64 -105L72 -111Q81 -117 99 -123T136 -129Q199 -129 229 -59L250 -9L73 431H9V506H240V431H173L286 130L295 86H298L310 130L422 431H357V506H581V431H518L318 -80Q293 -143 247 -176T140 -210Q111 -210
84 -202T44 -186L31 -178L64 -105Z" />
<glyph unicode="z" glyph-name="z" horiz-adv-x="527" d="M48 64L327 402L355 431V433Q355 431 314 431H138V350H53V506H472V442L195 104L167 76V74Q167 75 207 75H394V156H479V0H48V64Z" />
<glyph unicode="{" glyph-name="braceleft" horiz-adv-x="337" d="M118 77V173Q118 208 105 232T76 266T46 279L33 282V368L46 372Q60 375 75 384T104 418T118 479V563Q118 608 130 641T160 692T202 721T244 734T280 737L304 736V662H290Q277 662 265 659T238
646T213 614T203 557V454Q203 420 191 393T163 353T134 334L122 327V325L142 316Q162 307 182 276T203 198V83Q203 49 212 27T237 -5T265 -18T290 -22H304V-96Q304 -98 280 -98Q262 -98 245 -96T203 -82T161 -54T131 -2T118 77Z" />
<glyph unicode="|" glyph-name="bar" horiz-adv-x="275" d="M95 -159V792H180V-159H95Z" />
<glyph unicode="}" glyph-name="braceright" horiz-adv-x="337" d="M34 -22H48Q61 -22 72 -19T99 -6T124 26T134 83V198Q134 233 146 260T174 300T202 319L215 325V327L202 334Q190 340 175 353T147 393T134 454V557Q134 591 125 613T100 645T73 658T48 662H34V736Q34
737 57 737Q75 737 92 735T134 721T176 693T206 642T219 563V479Q219 443 232 418T261 384T290 372L304 368V282L290 279Q277 276 262 267T233 233T219 173V77Q219 32 207 -2T177 -53T135 -82T93 -95T57 -98L34 -96V-22Z" />
<glyph unicode="~" glyph-name="asciitilde" horiz-adv-x="609" d="M67 204Q67 289 103 331T206 373Q242 373 270 358T313 324T350 291T398 275Q433 275 449 303T465 369H544Q544 284 508 242T404 200Q369 200 341 215T297 248T260 282T212 297Q177 297 162 269T146
204H67Z" />
</font>
</defs>
</svg>
